<svg version="1.1" id="Layer_1" xmlns="http://www.w3.org/2000/svg" xmlns:xlink="http://www.w3.org/1999/xlink" x="0px" y="0px"
	 width="100%" viewBox="0 0 272 272" enable-background="new 0 0 272 272" xml:space="preserve">
<path fill="#000000" opacity="1.000000" stroke="none" 
	d="
M130.468658,273.000000 
	C119.418869,270.964783 108.694962,269.909241 98.134361,267.569641 
	C59.024879,258.905426 20.871204,226.590714 15.078383,179.110809 
	C13.529302,166.414001 14.695218,153.616196 16.557249,140.863892 
	C18.649616,126.534111 20.401918,112.220757 26.430466,98.842514 
	C43.831997,60.225918 72.895058,35.419437 114.942139,29.219782 
	C146.119141,24.622873 174.264023,33.842323 196.809723,57.092556 
	C200.964188,61.376842 206.700256,63.151520 211.655975,66.165703 
	C232.888489,79.079819 247.769775,96.625267 253.587830,121.389877 
	C259.313232,145.760223 255.940292,168.884171 245.582642,191.292419 
	C243.838577,195.065582 242.033768,198.856354 239.794220,202.341614 
	C237.678192,205.634674 237.243805,209.048859 237.285782,212.787598 
	C237.316986,215.567215 238.357529,216.680984 241.135132,216.641495 
	C247.297028,216.553909 253.463989,216.748856 259.623566,216.603409 
	C262.927185,216.525391 264.431030,217.511398 264.394409,221.114716 
	C264.221832,238.102234 264.248718,255.091782 264.102234,272.540283 
	C219.645767,273.000000 175.291550,273.000000 130.468658,273.000000 
M177.341843,115.142319 
	C164.866226,105.631996 150.552048,102.300987 135.423996,104.783005 
	C102.772575,110.140030 84.326012,137.797424 79.593781,164.542801 
	C78.830421,168.857147 77.725433,173.990051 81.338837,177.943604 
	C93.659561,191.424072 109.287727,197.127655 127.115005,195.122925 
	C147.427856,192.838699 165.034271,183.266312 181.600098,171.823746 
	C187.006027,168.089676 191.294022,163.333206 192.680725,156.441574 
	C196.034378,139.774734 190.553757,126.401611 177.341843,115.142319 
M157.082535,97.955589 
	C158.046936,98.205963 159.016129,98.439285 159.975021,98.709229 
	C180.167511,104.393646 194.572067,116.059372 199.765518,137.235168 
	C201.225494,143.188034 201.721497,149.199524 200.633606,155.358673 
	C206.178665,147.944702 209.578064,139.806229 210.667145,130.765793 
	C211.111618,127.076347 212.694321,123.416740 209.811432,119.784691 
	C203.367447,111.666161 196.601059,103.900932 188.134384,97.811844 
	C171.468292,85.825867 152.994980,78.846443 132.561951,76.015312 
	C114.532745,73.517265 98.878052,79.156059 85.540237,89.649521 
	C69.061691,102.613922 63.471836,121.237068 65.545601,141.894470 
	C66.227013,148.682190 67.629875,155.532852 71.487892,161.527161 
	C72.632927,160.845322 72.485466,159.942413 72.684120,159.161148 
	C76.477905,144.241928 82.785820,130.512955 93.440117,119.282639 
	C110.536690,101.261749 131.433029,93.634163 157.082535,97.955589 
M184.805328,215.625275 
	C188.636429,215.632462 192.471466,215.535309 196.297440,215.678864 
	C199.538284,215.800461 200.781311,214.395905 200.702698,211.215012 
	C200.579285,206.221085 200.832031,201.216034 200.646423,196.226089 
	C200.515610,192.709335 201.965210,191.555984 205.360138,191.634232 
	C212.519058,191.799194 219.689011,191.531769 226.845261,191.747162 
	C230.585892,191.859756 231.691772,190.460861 231.720383,186.804108 
	C231.830978,172.670883 229.506958,158.990326 224.433823,145.833328 
	C222.780991,141.546707 221.261765,137.050949 217.774445,132.912659 
	C215.783310,145.644958 210.914749,156.341461 202.893936,165.335220 
	C198.290039,170.497604 194.876724,176.161499 191.795547,182.291367 
	C185.069473,195.672546 175.029831,206.257751 162.380554,214.234512 
	C147.386200,223.690125 131.342987,230.567596 112.516922,232.936432 
	C132.005646,241.153717 151.423080,242.246994 171.091110,241.552444 
	C173.529831,241.466339 174.450104,239.915421 174.313660,237.461090 
	C174.082718,233.306992 174.001251,229.141602 173.968552,224.980087 
	C173.888397,214.783325 173.914017,214.783127 184.805328,215.625275 
M103.308121,39.935040 
	C69.650017,49.610218 33.259422,86.388596 29.934883,114.054665 
	C30.847900,112.731102 31.733976,111.342125 32.727814,110.035072 
	C33.733891,108.711914 34.828300,107.454056 35.915325,106.194611 
	C50.856850,88.882942 68.075371,74.776070 90.419327,68.119942 
	C95.644768,66.563324 101.302933,66.334435 106.399559,64.492043 
	C127.434166,56.888199 148.893311,52.585846 171.360809,54.618679 
	C174.951675,54.943577 178.553070,55.151993 183.429398,55.507584 
	C158.819397,36.607841 132.649689,32.098652 103.308121,39.935040 
M50.122318,199.056168 
	C45.849960,183.006943 44.566772,166.813171 46.525913,150.229080 
	C48.959743,129.626724 55.591888,110.815742 68.312027,94.333633 
	C71.582558,90.095840 75.272911,86.182045 78.770401,82.119400 
	C76.706993,82.372169 75.065895,83.100929 73.519409,83.993591 
	C57.359390,93.321449 44.397110,106.001266 34.271984,121.620781 
	C15.416295,150.708481 27.323612,185.482208 52.056541,206.594315 
	C51.494286,204.271423 50.953571,202.037537 50.122318,199.056168 
M159.612564,207.086914 
	C169.748566,200.140030 178.019775,191.482224 184.088058,180.821045 
	C150.632751,201.277557 116.780853,214.095367 79.657333,188.141464 
	C82.352951,199.131973 86.017578,209.223618 93.605606,217.333710 
	C98.476906,222.540176 104.074661,226.726257 111.925529,225.532028 
	C128.932968,222.944931 144.662994,217.012741 159.612564,207.086914 
M247.653046,129.677414 
	C243.998520,104.934013 230.218140,87.114212 208.926056,73.250572 
	C214.002243,83.122910 217.455292,92.638428 218.224091,102.779694 
	C218.954956,112.420258 220.331711,121.384438 225.355515,130.199829 
	C235.341034,147.721680 239.055374,167.186371 238.753265,188.254456 
	C247.608871,169.223953 250.948868,150.382538 247.653046,129.677414 
M145.907547,262.400940 
	C158.498642,260.522369 170.335922,256.585114 182.378479,249.311615 
	C172.888168,249.311615 164.734146,249.522491 156.594711,249.267487 
	C139.896530,248.744339 123.304420,246.740875 108.232132,239.184357 
	C97.641853,233.874893 86.116524,232.825409 74.352715,228.753281 
	C83.521164,240.704651 93.713264,249.734375 106.472488,255.777542 
	C118.725662,261.581024 131.358368,264.912384 145.907547,262.400940 
M205.087662,102.399429 
	C206.915405,104.337250 208.743149,106.275070 211.300980,108.986923 
	C210.635376,93.689613 205.575302,81.431625 197.758408,70.160027 
	C196.078873,67.738197 193.758362,66.268250 190.983185,65.338951 
	C184.787308,63.264187 178.343094,62.850235 171.919037,62.061630 
	C155.681763,60.068359 140.052322,62.994823 124.462563,67.038216 
	C154.784988,70.529434 182.362320,80.048294 205.087662,102.399429 
M54.344719,146.700348 
	C50.806530,167.025223 53.341496,186.433105 61.156021,205.655685 
	C65.546234,216.454987 72.723190,221.675888 83.484291,223.416748 
	C84.882950,223.643021 86.303024,223.736877 88.178703,223.943298 
	C78.916847,213.853668 73.753815,202.028244 72.238426,189.188065 
	C71.225990,180.609406 68.080116,173.239777 64.643364,165.693741 
	C61.743134,159.325760 59.874504,152.633606 58.505634,145.750702 
	C57.837856,142.393005 57.667809,138.934906 56.645077,135.671005 
	C55.894463,139.059814 55.143848,142.448639 54.344719,146.700348 
M29.434841,203.103394 
	C42.225269,233.901031 75.520035,253.983582 93.779510,257.769379 
	C86.036697,252.596878 78.670433,246.340652 72.685432,238.743484 
	C65.482948,229.600861 58.621029,220.238846 48.300884,214.232758 
	C47.461189,213.744110 46.845760,212.873856 46.116409,212.191284 
	C36.022011,202.744354 28.160540,191.707245 22.667921,178.972061 
	C24.368366,186.956635 25.805447,194.947418 29.434841,203.103394 
M257.654633,230.616348 
	C257.617310,223.348190 257.617310,223.348175 250.153275,223.334656 
	C249.820374,223.334061 249.487381,223.328598 249.154587,223.334351 
	C234.387543,223.589081 236.637527,221.163544 236.283157,236.447998 
	C236.191193,240.413986 237.740356,241.930420 241.620499,241.510452 
	C244.592056,241.188843 247.589020,241.075241 250.578003,240.946533 
	C257.648041,240.642166 257.648987,240.660812 257.656860,233.542389 
	C257.657593,232.876587 257.655487,232.210785 257.654633,230.616348 
M181.481018,225.164200 
	C181.435715,226.492493 181.323517,227.822418 181.355484,229.148849 
	C181.676666,242.484802 178.838974,240.459015 193.453278,240.690079 
	C197.006241,240.746246 200.086761,239.366226 201.110779,236.249939 
	C202.335953,232.521393 202.089157,228.380905 201.012558,224.476624 
	C200.887070,224.021545 199.959274,223.482666 199.415024,223.494965 
	C193.536331,223.627853 187.563126,222.014999 181.481018,225.164200 
M217.422241,248.315262 
	C215.426056,248.341202 213.429535,248.352448 211.433807,248.398483 
	C210.201721,248.426880 208.836151,248.751114 208.692764,250.073013 
	C208.192551,254.684647 207.212006,259.653961 209.056122,263.827698 
	C210.596146,267.313110 214.800507,264.633240 217.791367,264.955536 
	C219.268066,265.114716 220.782669,264.953949 222.278595,264.897736 
	C228.732925,264.655121 228.732712,264.649689 228.743805,258.061615 
	C228.762115,247.183411 228.762131,247.183411 217.422241,248.315262 
M236.510513,251.220703 
	C236.457581,254.861923 236.493759,258.507324 236.323395,262.143066 
	C236.188477,265.022430 237.006195,266.452209 240.257950,266.159241 
	C244.042999,265.818268 247.872772,266.007233 251.675156,265.811188 
	C253.673264,265.708221 256.688507,266.401245 256.569733,263.174225 
	C256.393005,258.371246 258.278717,253.329742 255.279953,248.789154 
	C255.142136,248.580475 254.648636,248.460953 254.363342,248.516907 
	C248.580536,249.650879 242.521637,248.291580 236.510513,251.220703 
M171.611145,263.491791 
	C170.603561,264.037445 169.595978,264.583099 167.621689,265.652283 
	C176.300888,265.652283 183.785995,265.707550 191.269974,265.639435 
	C202.728043,265.535156 201.624695,267.242462 201.613464,255.229599 
	C201.611710,253.348999 202.577362,250.893661 200.447250,249.715820 
	C198.116943,248.427292 195.979187,249.843811 194.032578,251.233231 
	C187.228256,256.090027 179.925446,260.042358 171.611145,263.491791 
M210.252869,215.439240 
	C214.306702,215.298538 218.795059,217.183228 222.270065,214.217712 
	C225.680603,211.307251 227.937210,207.256302 230.091324,203.320633 
	C231.275192,201.157654 230.664856,199.338760 227.716431,199.368622 
	C222.236496,199.424088 216.735077,199.020676 211.305420,200.224884 
	C209.928497,200.530273 208.419754,200.787674 208.497711,202.445587 
	C208.696075,206.664352 207.140732,211.037003 210.252869,215.439240 
M211.022507,238.176224 
	C210.537354,238.809158 209.679153,239.595200 210.591766,240.247620 
	C212.226654,241.416458 226.372498,240.232681 227.703308,238.948242 
	C228.045776,238.617691 228.442276,238.134399 228.459274,237.707169 
	C228.659271,232.678299 229.089539,227.629593 228.053177,221.073563 
	C221.850449,227.269531 216.643494,232.470810 211.022507,238.176224 
M212.923065,225.797653 
	C213.533966,225.052719 214.529968,224.226532 213.369537,223.342346 
	C212.230499,222.474457 210.770905,222.472855 209.649734,223.414612 
	C207.849014,224.927139 208.250473,226.849442 208.882889,229.326187 
	C210.313293,228.108307 211.406204,227.177765 212.923065,225.797653 
z"/>
</svg>